<?xml version="1.0" encoding="UTF-8" standalone="no"?>
<!-- Generator: Adobe Illustrator 15.0.2, SVG Export Plug-In . SVG Version: 6.00 Build 0)  -->

<svg
   xmlns:dc="http://purl.org/dc/elements/1.1/"
   xmlns:cc="http://creativecommons.org/ns#"
   xmlns:rdf="http://www.w3.org/1999/02/22-rdf-syntax-ns#"
   xmlns:svg="http://www.w3.org/2000/svg"
   xmlns="http://www.w3.org/2000/svg"
   xmlns:sodipodi="http://sodipodi.sourceforge.net/DTD/sodipodi-0.dtd"
   xmlns:inkscape="http://www.inkscape.org/namespaces/inkscape"
   version="1.1"
   id="Layer_1"
   x="0px"
   y="0px"
   width="385.86301"
   height="446.32199"
   viewBox="0 0 385.863 446.32197"
   enable-background="new 0 0 841.89 595.28"
   xml:space="preserve"
   inkscape:version="0.48.2 r9819"
   sodipodi:docname="logo.svg"><metadata
   id="metadata101"><rdf:RDF><cc:Work
       rdf:about=""><dc:format>image/svg+xml</dc:format><dc:type
         rdf:resource="http://purl.org/dc/dcmitype/StillImage" /></cc:Work></rdf:RDF></metadata><defs
   id="defs99" /><sodipodi:namedview
   pagecolor="#ffffff"
   bordercolor="#666666"
   borderopacity="1"
   objecttolerance="10"
   gridtolerance="10"
   guidetolerance="10"
   inkscape:pageopacity="0"
   inkscape:pageshadow="2"
   inkscape:window-width="1366"
   inkscape:window-height="714"
   id="namedview97"
   showgrid="false"
   fit-margin-top="10"
   fit-margin-left="10"
   fit-margin-right="10"
   fit-margin-bottom="10"
   inkscape:zoom="0.39645207"
   inkscape:cx="188.52101"
   inkscape:cy="191.00606"
   inkscape:window-x="0"
   inkscape:window-y="0"
   inkscape:window-maximized="1"
   inkscape:current-layer="Layer_1" />
<g
   id="g3"
   transform="translate(-232.424,-42.324008)">
	<path
   d="m 397.685,211.352 h -13.542 l -41.27,-61.904 v 61.904 h -16.507 v -90.277 h 16.503 l 38.307,57.926 v -57.926 h 16.508 v 90.277 z"
   id="path5"
   inkscape:connector-curvature="0"
   style="fill:#a2cca2" />
</g>
<g
   id="g7"
   transform="translate(-232.424,-42.324008)">
	<path
   d="m 525.935,121.075 -41.477,74.285 h 35.724 v 15.992 h -62.986 l 41.478,-74.285 H 462.95 v -15.992 h 62.985 z"
   id="path9"
   inkscape:connector-curvature="0"
   style="fill:#a2cca2" />
</g>
<g
   id="g11"
   transform="translate(-232.424,-42.324008)">
	<path
   d="m 497.271,355.772 h -16.508 v -90.277 h 16.508 v 90.277 z"
   id="path13"
   inkscape:connector-curvature="0"
   style="fill:#a2cca2" />
</g>
<g
   id="g15"
   transform="translate(-232.424,-42.324008)">
	<path
   d="m 275.564,421.355 c -1.95,1.718 -4.46,2.576 -7.532,2.576 -3.072,0 -5.582,-0.858 -7.531,-2.576 -1.95,-1.718 -2.925,-4.001 -2.925,-6.849 0,-2.849 0.975,-5.131 2.925,-6.85 1.95,-1.717 4.46,-2.576 7.531,-2.576 3.071,0 5.582,0.859 7.532,2.576 1.95,1.719 2.925,4.001 2.925,6.85 0,2.848 -0.975,5.132 -2.925,6.849 z m -2.121,-12.027 c -1.263,-1.347 -3.066,-2.021 -5.41,-2.021 -2.344,0 -4.147,0.674 -5.41,2.021 -1.263,1.346 -1.895,3.072 -1.895,5.179 0,2.107 0.631,3.832 1.895,5.179 1.262,1.347 3.066,2.02 5.41,2.02 2.344,0 4.147,-0.673 5.41,-2.02 1.263,-1.347 1.895,-3.072 1.895,-5.179 0,-2.107 -0.632,-3.833 -1.895,-5.179 z"
   id="path17"
   inkscape:connector-curvature="0"
   style="fill:#848484" />
	<path
   d="M 309.858,423.569 H 297.25 v -18.126 h 2.879 v 15.899 h 9.729 v 2.227 z"
   id="path19"
   inkscape:connector-curvature="0"
   style="fill:#848484" />
	<path
   d="m 339.439,405.443 -7.123,9.721 v 8.405 h -3.031 v -8.363 l -7.183,-9.763 h 3.031 l 5.614,7.532 5.661,-7.532 h 3.031 z"
   id="path21"
   inkscape:connector-curvature="0"
   style="fill:#848484" />
	<path
   d="m 376.835,423.569 h -2.905 l -2.012,-13.75 -5.76,9.401 -5.864,-9.373 -1.976,13.722 h -3.059 l 2.67,-18.126 h 2.634 l 5.57,9.015 5.522,-9.015 h 2.485 l 2.695,18.126 z"
   id="path23"
   inkscape:connector-curvature="0"
   style="fill:#848484" />
	<path
   d="m 403.493,417.251 h -4.619 v 6.318 h -3.031 v -18.126 h 6.803 c 1.113,0 2.065,0.069 2.855,0.208 0.789,0.139 1.554,0.398 2.293,0.778 0.739,0.381 1.301,0.961 1.686,1.739 0.385,0.779 0.577,1.757 0.577,2.934 0,0.899 -0.137,1.712 -0.41,2.438 -0.274,0.727 -0.634,1.314 -1.079,1.765 -0.445,0.451 -0.962,0.826 -1.55,1.128 -0.587,0.303 -1.17,0.515 -1.747,0.636 -0.578,0.122 -1.169,0.182 -1.778,0.182 z m -1.406,-9.58 h -3.213 v 7.354 h 4.062 c 2.728,0 4.092,-1.272 4.092,-3.819 0,-1.307 -0.364,-2.223 -1.092,-2.748 -0.728,-0.524 -2.011,-0.787 -3.849,-0.787 z"
   id="path25"
   inkscape:connector-curvature="0"
   style="fill:#848484" />
	<path
   d="m 431.213,423.569 h -2.879 v -18.126 h 2.879 v 18.126 z"
   id="path27"
   inkscape:connector-curvature="0"
   style="fill:#848484" />
	<path
   d="m 467.115,423.569 h -2.897 l -2.01,-4.894 h -8.125 l -2.021,4.894 h -3.059 l 7.51,-18.126 h 3.129 l 7.473,18.126 z m -5.821,-7.121 -3.137,-7.637 -3.154,7.637 h 6.291 z"
   id="path29"
   inkscape:connector-curvature="0"
   style="fill:#848484" />
	<path
   d="m 492.89,423.569 h -7.85 v -18.126 h 7.85 c 3.132,0 5.673,0.808 7.623,2.422 1.949,1.614 2.925,3.828 2.925,6.642 0,2.814 -0.976,5.027 -2.925,6.642 -1.95,1.614 -4.492,2.42 -7.623,2.42 z m 0,-15.898 h -4.971 v 13.672 h 4.971 c 2.364,0 4.188,-0.617 5.471,-1.852 1.283,-1.235 1.925,-2.896 1.925,-4.984 0,-2.088 -0.642,-3.75 -1.925,-4.984 -1.283,-1.234 -3.107,-1.852 -5.471,-1.852 z"
   id="path31"
   inkscape:connector-curvature="0"
   style="fill:#848484" />
	<path
   d="m 547.08,423.569 h -2.879 v -18.126 h 2.879 v 18.126 z"
   id="path33"
   inkscape:connector-curvature="0"
   style="fill:#848484" />
	<path
   d="m 583.541,423.569 h -2.425 L 569.963,409.25 v 14.319 h -2.879 v -18.126 h 3.228 l 10.351,13.429 v -13.429 h 2.879 v 18.126 z"
   id="path35"
   inkscape:connector-curvature="0"
   style="fill:#848484" />
	<path
   d="m 256.667,449.809 h -2.879 v -18.126 h 2.879 v 18.126 z"
   id="path37"
   inkscape:connector-curvature="0"
   style="fill:#ffffff" />
	<path
   d="m 293.128,449.809 h -2.425 L 279.55,435.49 v 14.319 h -2.879 v -18.126 h 3.227 l 10.351,13.429 v -13.429 h 2.879 v 18.126 z"
   id="path39"
   inkscape:connector-curvature="0"
   style="fill:#ffffff" />
	<path
   d="m 326.103,433.91 h -10.062 v 5.308 h 7.759 v 2.228 h -7.759 v 8.363 h -2.879 v -18.126 h 12.941 v 2.227 z"
   id="path41"
   inkscape:connector-curvature="0"
   style="fill:#ffffff" />
	<path
   d="m 360.67,447.595 c -1.95,1.718 -4.46,2.576 -7.532,2.576 -3.072,0 -5.582,-0.858 -7.531,-2.576 -1.95,-1.718 -2.925,-4.001 -2.925,-6.849 0,-2.849 0.975,-5.131 2.925,-6.85 1.95,-1.717 4.46,-2.576 7.531,-2.576 3.071,0 5.582,0.859 7.532,2.576 1.95,1.719 2.925,4.001 2.925,6.85 0,2.848 -0.975,5.131 -2.925,6.849 z m -2.122,-12.028 c -1.263,-1.347 -3.066,-2.021 -5.41,-2.021 -2.344,0 -4.147,0.674 -5.41,2.021 -1.263,1.346 -1.895,3.072 -1.895,5.179 0,2.107 0.631,3.832 1.895,5.179 1.262,1.347 3.066,2.02 5.41,2.02 2.344,0 4.147,-0.673 5.41,-2.02 1.263,-1.347 1.895,-3.072 1.895,-5.179 0,-2.107 -0.632,-3.833 -1.895,-5.179 z"
   id="path43"
   inkscape:connector-curvature="0"
   style="fill:#ffffff" />
	<path
   d="m 397.631,449.809 h -3.282 l -4.508,-7.121 h -4.455 v 7.121 h -3.031 v -18.126 h 6.895 c 2.369,0 4.187,0.405 5.452,1.213 1.266,0.81 1.898,2.188 1.898,4.135 0,1.109 -0.337,2.108 -1.013,2.995 -0.675,0.888 -1.628,1.57 -2.857,2.048 l 4.901,7.735 z m -8.426,-16.054 h -3.819 v 6.603 h 4.577 c 0.949,0 1.788,-0.269 2.516,-0.806 0.727,-0.538 1.091,-1.378 1.091,-2.521 0,-1.04 -0.369,-1.847 -1.106,-2.419 -0.738,-0.572 -1.824,-0.857 -3.259,-0.857 z"
   id="path45"
   inkscape:connector-curvature="0"
   style="fill:#ffffff" />
	<path
   d="m 436.39,449.809 h -2.904 l -2.013,-13.75 -5.759,9.401 -5.864,-9.373 -1.977,13.722 h -3.058 l 2.669,-18.126 h 2.635 l 5.57,9.015 5.522,-9.015 h 2.485 l 2.694,18.126 z"
   id="path47"
   inkscape:connector-curvature="0"
   style="fill:#ffffff" />
	<path
   d="m 471.449,449.809 h -2.897 l -2.01,-4.894 h -8.125 l -2.021,4.894 h -3.059 l 7.51,-18.126 h 3.129 l 7.473,18.126 z m -5.821,-7.121 -3.137,-7.637 -3.154,7.637 h 6.291 z"
   id="path49"
   inkscape:connector-curvature="0"
   style="fill:#ffffff" />
	<path
   d="m 501.013,433.91 h -6.184 v 15.898 H 491.95 V 433.91 h -6.183 v -2.228 h 15.245 v 2.228 z"
   id="path51"
   inkscape:connector-curvature="0"
   style="fill:#ffffff" />
	<path
   d="m 521.925,449.809 h -2.879 v -18.126 h 2.879 v 18.126 z"
   id="path53"
   inkscape:connector-curvature="0"
   style="fill:#ffffff" />
	<path
   d="m 551.324,450.171 c -3.112,0 -5.663,-0.862 -7.653,-2.589 -1.99,-1.727 -2.985,-4.005 -2.985,-6.836 0,-2.831 0.99,-5.11 2.971,-6.836 1.979,-1.727 4.525,-2.59 7.638,-2.59 2.182,0 4.142,0.354 5.88,1.062 l -0.303,2.279 c -0.102,-0.035 -0.375,-0.117 -0.818,-0.246 -0.445,-0.13 -0.748,-0.221 -0.91,-0.272 -0.161,-0.052 -0.439,-0.125 -0.833,-0.22 -0.394,-0.095 -0.723,-0.164 -0.985,-0.207 -0.262,-0.043 -0.581,-0.082 -0.954,-0.117 -0.374,-0.034 -0.733,-0.052 -1.076,-0.052 -2.364,0 -4.198,0.678 -5.501,2.033 -1.304,1.355 -1.955,3.077 -1.955,5.166 0,2.089 0.656,3.811 1.97,5.165 1.313,1.355 3.162,2.033 5.547,2.033 0.303,0 0.596,-0.009 0.879,-0.026 0.283,-0.017 0.576,-0.052 0.879,-0.104 l 0.758,-0.129 c 0.202,-0.034 0.475,-0.104 0.818,-0.207 l 0.697,-0.182 c 0.141,-0.034 0.403,-0.112 0.788,-0.233 0.383,-0.12 0.616,-0.189 0.697,-0.207 l 0.303,2.279 c -1.801,0.69 -3.75,1.036 -5.852,1.036 z"
   id="path55"
   inkscape:connector-curvature="0"
   style="fill:#ffffff" />
	<path
   d="m 581.814,450.171 c -2.93,0 -5.243,-0.389 -6.94,-1.165 l 0.394,-2.874 c 1.92,1.208 4.122,1.813 6.607,1.813 1.455,0 2.662,-0.229 3.622,-0.688 0.959,-0.458 1.439,-1.162 1.439,-2.112 0,-0.484 -0.131,-0.916 -0.394,-1.297 -0.263,-0.38 -0.676,-0.713 -1.241,-0.998 -0.565,-0.285 -1.125,-0.511 -1.68,-0.676 -0.554,-0.165 -1.28,-0.382 -2.179,-0.65 -0.976,-0.291 -1.683,-0.501 -2.122,-0.633 -0.439,-0.131 -1.033,-0.348 -1.78,-0.649 -0.748,-0.302 -1.293,-0.6 -1.637,-0.894 -0.344,-0.294 -0.657,-0.682 -0.939,-1.165 -0.283,-0.483 -0.425,-1.027 -0.425,-1.632 0,-0.604 0.132,-1.195 0.395,-1.773 0.263,-0.578 0.672,-1.135 1.228,-1.67 0.556,-0.535 1.354,-0.967 2.395,-1.295 1.04,-0.328 2.247,-0.492 3.621,-0.492 1.273,0 2.531,0.126 3.773,0.376 1.243,0.25 2.208,0.539 2.895,0.867 l -0.303,2.615 c -2.546,-1.088 -4.576,-1.632 -6.092,-1.632 -1.253,0 -2.359,0.227 -3.319,0.678 -0.96,0.451 -1.439,1.119 -1.439,2.003 0,0.764 0.378,1.358 1.134,1.783 0.756,0.425 1.899,0.845 3.432,1.262 0.69,0.194 1.112,0.313 1.266,0.355 0.154,0.042 0.552,0.155 1.194,0.335 0.642,0.181 1.064,0.314 1.268,0.399 l 1.033,0.463 c 0.526,0.224 0.881,0.412 1.064,0.566 l 0.759,0.669 c 0.345,0.291 0.583,0.579 0.715,0.862 0.132,0.283 0.253,0.613 0.365,0.99 0.111,0.377 0.167,0.78 0.167,1.209 0,0.449 -0.051,0.872 -0.151,1.269 -0.102,0.397 -0.324,0.838 -0.667,1.32 -0.344,0.483 -0.799,0.898 -1.364,1.243 -0.565,0.346 -1.374,0.635 -2.425,0.867 -1.052,0.235 -2.274,0.351 -3.669,0.351 z"
   id="path57"
   inkscape:connector-curvature="0"
   style="fill:#ffffff" />
</g>
<rect
   x="10"
   y="191.381"
   width="365.86301"
   height="3.451"
   id="rect59"
   style="fill:#232323" />
<rect
   x="195.52299"
   y="9.9999933"
   width="3.77"
   height="343.05701"
   id="rect61"
   style="fill:#232323" />
<g
   id="g63"
   transform="translate(-232.424,-42.324008)">
	<g
   id="g65">
		<path
   clip-rule="evenodd"
   d="m 365.194,265.352 c -0.09,-0.01 -0.179,-0.031 -0.268,-0.038 0.125,0.027 0.21,0.038 0.268,0.038 z"
   id="path67"
   inkscape:connector-curvature="0"
   style="fill:#a2cca2;fill-rule:evenodd" />
		<path
   clip-rule="evenodd"
   d="m 400.192,266.749 c -0.017,-0.006 -0.027,-0.021 -0.044,-0.021 -0.02,0.122 -0.009,0.143 0.044,0.021 z"
   id="path69"
   inkscape:connector-curvature="0"
   style="fill:#a2cca2;fill-rule:evenodd" />
		<path
   clip-rule="evenodd"
   d="m 352.158,283.118 c 9.808,-0.623 20.618,4.925 17.478,16.006 -1.761,6.223 -8.238,4.19 -10.871,10.431 -3.872,9.165 10.941,16.712 21.592,8.438 20.125,-15.627 9.96,-47.953 -12.424,-51.768 -1.209,-0.208 -3.822,-0.61 -5.076,-0.61 -24.519,0 -43.484,19.875 -43.484,44.394 0,17.516 9.305,32.078 24.045,39.303 -23.871,-15.933 -24.933,-64.056 8.74,-66.194 z"
   id="path71"
   inkscape:connector-curvature="0"
   style="fill:#a2cca2;fill-rule:evenodd" />
		<path
   clip-rule="evenodd"
   d="m 377.611,266.084 c 10.545,4.867 18.538,16.321 18.291,31.784 -0.432,26.688 -33.169,37.227 -41.153,18.227 -2.272,-5.394 0.521,-10.854 7.273,-13.929 5.469,-2.478 5.51,-9.472 1.925,-12.241 -6.007,-4.631 -14.842,-3.859 -21.831,0.26 -10.882,6.409 -12.085,20.804 -10.488,31.51 2.66,17.843 18.323,28.988 33.963,30.849 23.518,2.804 42.563,-18.631 42.563,-42.534 0,-19.545 -13.003,-37.995 -30.543,-43.926 z"
   id="path73"
   inkscape:connector-curvature="0"
   style="fill:#a2cca2;fill-rule:evenodd" />
	</g>
</g>
<g
   id="g75"
   transform="translate(-232.424,-42.324008)">
	<path
   d="m 295.114,478.646 h -1.355 l -6.233,-8.003 v 8.003 h -1.609 v -10.13 h 1.804 l 5.785,7.505 v -7.505 h 1.609 v 10.13 z"
   id="path77"
   inkscape:connector-curvature="0"
   style="fill:#a2cca2" />
	<path
   d="m 320.471,478.646 h -7.385 v -10.13 h 7.233 v 1.244 h -5.624 v 2.967 h 4.472 v 1.245 h -4.472 v 3.43 h 5.776 v 1.244 z"
   id="path79"
   inkscape:connector-curvature="0"
   style="fill:#a2cca2" />
	<path
   d="m 352.637,468.516 -3.472,10.13 h -1.779 l -2.793,-8.274 -2.898,8.274 h -1.938 l -3.161,-10.13 h 1.671 l 2.659,8.603 2.959,-8.398 1.265,0.047 2.999,8.351 2.794,-8.602 h 1.694 z"
   id="path81"
   inkscape:connector-curvature="0"
   style="fill:#a2cca2" />
	<path
   d="m 396.288,468.516 -6.424,8.886 h 5.624 v 1.244 h -8.228 l 6.425,-8.886 h -5.607 v -1.244 h 8.21 z"
   id="path83"
   inkscape:connector-curvature="0"
   style="fill:#a2cca2" />
	<path
   d="m 420.392,478.646 h -7.385 v -10.13 h 7.232 v 1.244 h -5.624 v 2.967 h 4.473 v 1.245 h -4.473 v 3.43 h 5.776 v 1.244 z"
   id="path85"
   inkscape:connector-curvature="0"
   style="fill:#a2cca2" />
	<path
   d="m 446.521,478.646 h -1.619 l -1.124,-2.735 h -4.541 l -1.129,2.735 h -1.71 l 4.197,-10.13 h 1.749 l 4.177,10.13 z m -3.253,-3.98 -1.753,-4.269 -1.763,4.269 h 3.516 z"
   id="path87"
   inkscape:connector-curvature="0"
   style="fill:#a2cca2" />
	<path
   d="m 470.36,478.646 h -7.046 v -10.13 h 1.608 v 8.886 h 5.438 v 1.244 z"
   id="path89"
   inkscape:connector-curvature="0"
   style="fill:#a2cca2" />
	<path
   d="m 495.932,478.646 h -1.619 l -1.124,-2.735 h -4.541 l -1.129,2.735 h -1.71 l 4.197,-10.13 h 1.749 l 4.177,10.13 z m -3.254,-3.98 -1.753,-4.269 -1.763,4.269 h 3.516 z"
   id="path91"
   inkscape:connector-curvature="0"
   style="fill:#a2cca2" />
	<path
   d="m 521.922,478.646 h -1.355 l -6.233,-8.003 v 8.003 h -1.608 v -10.13 h 1.804 l 5.784,7.505 v -7.505 h 1.609 v 10.13 z"
   id="path93"
   inkscape:connector-curvature="0"
   style="fill:#a2cca2" />
	<path
   d="m 544.28,478.646 h -4.387 v -10.13 h 4.387 c 1.75,0 3.17,0.451 4.26,1.353 1.09,0.902 1.635,2.14 1.635,3.712 0,1.573 -0.545,2.811 -1.635,3.712 -1.09,0.901 -2.51,1.353 -4.26,1.353 z m 0,-8.886 h -2.778 v 7.642 h 2.778 c 1.321,0 2.34,-0.346 3.058,-1.035 0.717,-0.689 1.075,-1.618 1.075,-2.786 0,-1.167 -0.358,-2.096 -1.075,-2.785 -0.718,-0.691 -1.736,-1.036 -3.058,-1.036 z"
   id="path95"
   inkscape:connector-curvature="0"
   style="fill:#a2cca2" />
</g>
</svg>